---
---
<svg width="59.795834mm" height="11.1125mm" viewBox="0 0 59.795834 11.1125" version="1.1" xmlns="http://www.w3.org/2000/svg" xmlns:svg="http://www.w3.org/2000/svg"><g id="layer1" transform="translate(-35.574684,-97.992806)"><path fill="black" d="m 40.337184,105.9303 h 0.79375 v 0.79375 h -0.79375 -0.79375 -0.79375 -0.79375 -0.79375 v -0.79375 h -0.79375 v -0.79375 -0.79375 -0.79375 -0.79375 -0.79375 -0.79375 -0.79375 h -0.79375 v -0.793747 h 0.79375 v -0.79375 h 0.79375 v -0.79375 h 0.79375 v 0.79375 h 0.79375 v 0.79375 h -0.79375 v 0.793747 0.79375 0.79375 h 0.79375 0.79375 0.79375 v 0.79375 h -0.79375 -0.79375 -0.79375 v 0.79375 0.79375 0.79375 h 0.79375 v 0.79375 h 0.79375 z m 0.79375,0 v -0.79375 h 0.79375 v 0.79375 z m 0,-5.55625 h -0.79375 v -0.793747 h -0.79375 v -0.79375 h -0.79375 v -0.79375 h 0.79375 0.79375 0.79375 v 0.79375 h 0.79375 v -0.79375 h 0.79375 v 0.79375 0.79375 h -0.79375 v 0.793747 z m 9.260416,6.35 H 49.5976 v -0.79375 -0.79375 -0.79375 -0.79375 -0.79375 -0.79375 h -0.79375 v 0.79375 H 48.0101 v 0.79375 0.79375 0.79375 0.79375 0.79375 H 47.21635 46.4226 v -0.79375 -0.79375 -0.79375 -0.79375 -0.79375 -0.79375 h -0.79375 v 0.79375 H 44.8351 v 0.79375 0.79375 0.79375 0.79375 0.79375 H 44.04135 43.2476 v -0.79375 -0.79375 -0.79375 -0.79375 -0.79375 h -0.79375 v -0.79375 h 0.79375 v -0.79375 h 0.79375 v -0.79375 h 0.79375 v 0.79375 0.79375 h 0.79375 v -0.79375 h 0.79375 v -0.79375 h 0.79375 0.79375 v 0.79375 0.79375 h 0.79375 v -0.79375 h 0.79375 v -0.79375 h 0.79375 0.79375 v 0.79375 0.79375 0.79375 0.79375 0.79375 0.79375 h 0.79375 v 0.79375 H 51.1851 v 0.79375 z m 3.968749,2.38125 h -0.79375 v -0.79375 -0.79375 -0.79375 -0.79375 -0.79375 -0.79375 -0.79375 h -0.79375 v -0.79375 h 0.79375 v -0.79375 h 0.79375 v -0.79375 h 0.79375 v 0.79375 0.79375 0.79375 0.79375 h 0.79375 v 0.79375 h 0.79375 v 0.79375 h 0.79375 v 0.79375 h -0.79375 -0.79375 v -0.79375 h -0.79375 v 0.79375 0.79375 h 0.79375 v 0.79375 h -0.79375 v 0.79375 z m 3.175,-3.175 v -0.79375 -0.79375 -0.79375 -0.79375 h -0.79375 v -0.79375 h -0.79375 v -0.79375 h -0.79375 v -0.79375 h 0.79375 0.79375 0.79375 v 0.79375 h 0.79375 v 0.79375 h 0.79375 v 0.79375 0.79375 0.79375 0.79375 h -0.79375 v 0.79375 z m 3.968751,0.79375 H 60.7101 v -0.79375 -0.79375 -0.79375 -0.79375 -0.79375 -0.79375 h -0.79375 v -0.79375 h 0.79375 v -0.79375 h -0.79375 v -0.793747 h 0.79375 v -0.79375 h 0.79375 v -0.79375 h 0.79375 v 0.79375 0.79375 0.793747 0.79375 h 0.79375 0.79375 v 0.79375 H 63.09135 62.2976 v 0.79375 0.79375 0.79375 0.79375 h 0.79375 v 0.79375 H 62.2976 v 0.79375 z m 1.5875,-1.5875 v -0.79375 h 0.79375 v 0.79375 z m 3.174999,1.5875 v -0.79375 h -0.79375 v -0.79375 -0.79375 -0.79375 -0.79375 h -0.79375 v -0.79375 h 0.79375 v -0.79375 h 0.79375 v -0.79375 h 0.79375 v 0.79375 0.79375 0.79375 0.79375 0.79375 0.79375 h 0.79375 v 0.79375 h -0.79375 v 0.79375 z m 0.79375,1.5875 h 0.79375 v 0.79375 h -0.79375 -0.79375 -0.79375 v -0.79375 h -0.79375 v -0.79375 -0.79375 h 0.79375 v 0.79375 h 0.79375 v 0.79375 z m 0.79375,0 v -0.79375 h 0.79375 v 0.79375 z m 0.79375,-0.79375 v -0.79375 -0.79375 -0.79375 h -0.79375 v -0.79375 h 0.79375 v -0.79375 -0.79375 -0.79375 -0.79375 h 0.79375 v -0.79375 h 0.79375 v 0.79375 0.79375 0.79375 0.79375 0.79375 0.79375 0.79375 0.79375 h -0.79375 v 0.79375 z m 6.085415,0.79375 h 0.79375 v 0.79375 h -0.79375 -0.79375 -0.79375 -0.79375 v -0.79375 h -0.79375 v -0.79375 -0.79375 h 0.79375 0.79375 v 0.79375 h 0.79375 v 0.79375 z m 0.79375,0 v -0.79375 -0.79375 -0.79375 h -0.79375 v -0.79375 h 0.79375 v -0.79375 -0.79375 -0.79375 h -0.79375 v -0.79375 h -0.79375 v -0.79375 h -0.79375 v 0.79375 0.79375 0.79375 0.79375 0.79375 h 0.79375 v 0.79375 h 0.79375 v 0.79375 h -0.79375 -0.79375 v -0.79375 h -0.79375 v -0.79375 h -0.79375 v -0.79375 -0.79375 -0.79375 -0.79375 h 0.79375 v -0.79375 h 0.79375 v -0.79375 h 0.79375 0.79375 v 0.79375 h 0.79375 v -0.79375 h 0.79375 0.79375 v 0.79375 h 0.79375 v 0.79375 h -0.79375 v 0.79375 0.79375 0.79375 0.79375 0.79375 0.79375 0.79375 h -0.79375 v 0.79375 z m 6.350003,-1.5875 h -0.79375 -0.79375 v -0.79375 h -0.79375 v -0.79375 h -0.79375 v -0.79375 -0.79375 -0.79375 -0.79375 h 0.79375 v -0.79375 h 0.79375 v 0.79375 0.79375 0.79375 0.79375 h 0.79375 v 0.79375 h 0.79375 v 0.79375 h 0.79375 v 0.79375 z m 0.79375,-0.79375 v -0.79375 -0.79375 -0.79375 -0.79375 h -0.79375 v -0.79375 h -0.79375 v -0.79375 h -0.79375 v -0.79375 h 0.79375 0.79375 0.79375 v 0.79375 h 0.79375 v 0.79375 h 0.79375 v 0.79375 0.79375 0.79375 0.79375 h -0.79375 v 0.79375 z m 3.968749,0.79375 h -0.79375 v -0.79375 -0.79375 -0.79375 -0.79375 -0.79375 -0.79375 -0.79375 -0.79375 h -0.79375 v -0.793747 h 0.79375 v -0.79375 h 0.79375 v -0.79375 h 0.79375 v 0.79375 0.79375 0.793747 0.79375 0.79375 0.79375 0.79375 0.79375 0.79375 h 0.79375 v 0.79375 h -0.79375 v 0.79375 z m 7.14375,0 h -0.79375 v -0.79375 h -0.79375 v 0.79375 h -0.79375 -0.79375 v -0.79375 h -0.79375 v -0.79375 h -0.79375 v -0.79375 -0.79375 -0.79375 -0.79375 -0.79375 h 0.79375 v -0.79375 h 0.79375 0.79375 0.79375 v 0.79375 h 0.79375 v -0.79375 -0.793747 h -0.79375 v -0.79375 h 0.79375 v -0.79375 h 0.79375 0.79375 v 0.79375 0.79375 0.793747 0.79375 0.79375 0.79375 0.79375 0.79375 0.79375 h 0.79375 v 0.79375 h -0.79375 v 0.79375 z m -1.5875,-1.5875 h 0.79375 v -0.79375 -0.79375 -0.79375 h -0.79375 v -0.79375 h -0.79375 v -0.79375 h -0.79375 v 0.79375 0.79375 0.79375 0.79375 h 0.79375 v 0.79375 z" /></g>
</svg>