---
---
<svg width="34.924995mm" height="8.7312498mm" viewBox="0 0 34.924995 8.7312498" version="1.1" xmlns="http://www.w3.org/2000/svg" xmlns:svg="http://www.w3.org/2000/svg"><g id="layer1" transform="translate(-35.567132,-114.76575)"><path fill="white" d="m 41.917131,123.49698 h -0.79375 v -0.79375 -0.79375 -0.79375 -0.79375 h -0.79375 v -0.79375 h 0.79375 v -0.79375 -0.79375 -0.79375 -0.79375 -0.79375 h 0.79375 v -0.79375 h 0.79375 v 0.79375 0.79375 0.79375 0.79375 0.79375 0.79375 0.79375 0.79375 0.79375 h 0.79375 v 0.79375 h -0.79375 v 0.79375 z m -4.7625,0 h -0.79375 v -0.79375 -0.79375 -0.79375 -0.79375 -0.79375 -0.79375 -0.79375 -0.79375 h -0.79375 v -0.79375 h 0.79375 v -0.79375 h 0.79375 v -0.79375 h 0.79375 v 0.79375 0.79375 0.79375 h 0.79375 v 0.79375 h 0.79375 v 0.79375 h 0.79375 v 0.79375 h -0.79375 v -0.79375 h -0.79375 v -0.79375 h -0.79375 v 0.79375 0.79375 0.79375 0.79375 0.79375 h 0.79375 v 0.79375 h -0.79375 v 0.79375 z m 10.31875,0 h -0.79375 -0.79375 v -0.79375 h -0.79375 v -0.79375 h -0.79375 v -0.79375 -0.79375 -0.79375 -0.79375 h 0.79375 v -0.79375 h 0.79375 v 0.79375 0.79375 0.79375 0.79375 h 0.79375 v 0.79375 h 0.79375 v 0.79375 h 0.79375 v 0.79375 z m 0.79375,-0.79375 v -0.79375 -0.79375 -0.79375 -0.79375 h -0.79375 v -0.79375 h -0.79375 v -0.79375 h -0.79375 v -0.79375 h 0.79375 0.79375 0.79375 v 0.79375 h 0.79375 v 0.79375 h 0.79375 v 0.79375 0.79375 0.79375 0.79375 h -0.79375 v 0.79375 z m 6.349999,0 h 0.79375 v 0.79375 h -0.79375 -0.79375 -0.79375 -0.79375 v -0.79375 h -0.79375 v -0.79375 h -0.79375 v -0.79375 -0.79375 -0.79375 -0.79375 h 0.79375 v -0.79375 h 0.79375 v 0.79375 0.79375 0.79375 0.79375 h 0.79375 v 0.79375 h 0.79375 v 0.79375 z m 0.79375,0 v -0.79375 h 0.79375 v 0.79375 z m 0,-3.175 h -0.79375 v -0.79375 h -0.79375 v -0.79375 h -0.79375 -0.79375 v -0.79375 h 0.79375 0.79375 0.79375 v 0.79375 h 0.79375 v -0.79375 h 0.79375 v 0.79375 0.79375 0.79375 z m 2.381251,-2.38125 v -0.79375 -0.79375 h 0.79375 v -0.79375 h 0.79375 v 0.79375 0.79375 h -0.79375 v 0.79375 z m 0.79375,6.35 h -0.79375 v -0.79375 -0.79375 -0.79375 -0.79375 h -0.79375 v -0.79375 h 0.79375 v -0.79375 h 0.79375 v -0.79375 h 0.79375 v 0.79375 0.79375 0.79375 0.79375 0.79375 h 0.79375 v 0.79375 h -0.79375 v 0.79375 z m 2.38125,-3.96875 v -0.79375 h 0.79375 v 0.79375 z m 3.96875,3.96875 h -0.79375 -0.79375 -0.79375 -0.79375 v -0.79375 h -0.79375 v -0.79375 -0.79375 h 0.79375 v -0.79375 h 0.79375 v -0.79375 h 0.79375 0.79375 v -0.79375 h -0.79375 -0.79375 -0.79375 v -0.79375 h 0.79375 v -0.79375 h 0.79375 0.79375 0.79375 v 0.79375 h 0.79375 v 0.79375 0.79375 0.79375 0.79375 0.79375 h 0.79375 v 0.79375 h -0.79375 v 0.79375 z m -1.5875,-0.79375 h 0.79375 v -0.79375 -0.79375 -0.79375 h -0.79375 -0.79375 v 0.79375 0.79375 0.79375 z m 5.55625,0.79375 h -0.79375 v -0.79375 -0.79375 -0.79375 -0.79375 -0.79375 -0.79375 -0.79375 -0.79375 h -0.79375 v -0.79375 h 0.79375 v -0.79375 h 0.79375 v -0.79375 h 0.79375 v 0.79375 0.79375 0.79375 0.79375 0.79375 0.79375 0.79375 0.79375 0.79375 h 0.79375 v 0.79375 h -0.79375 v 0.79375 z" /></g>
</svg>